<svg width="500" height="500" viewBox="0 0 500 500" fill="none" xmlns="http://www.w3.org/2000/svg">
<path d="M250 493.503C384.483 493.503 493.502 384.483 493.502 250C493.502 115.517 384.483 6.49756 250 6.49756C115.517 6.49756 6.49751 115.517 6.49751 250C6.49751 384.483 115.517 493.503 250 493.503Z" fill="#EFF6FF"/>
<path fill-rule="evenodd" clip-rule="evenodd" d="M250 12.995C119.106 12.995 12.995 119.106 12.995 250C12.995 380.894 119.106 487.005 250 487.005C380.894 487.005 487.005 380.894 487.005 250C487.005 119.106 380.894 12.995 250 12.995ZM0 250C0 111.929 111.929 0 250 0C388.071 0 500 111.929 500 250C500 388.071 388.071 500 250 500C111.929 500 0 388.071 0 250Z" fill="#1E3A8A"/>
<path d="M217.15 245.173H75.238C75.238 205.985 107.006 174.217 146.194 174.217C185.382 174.217 217.15 205.985 217.15 245.173Z" fill="#1E3A8A"/>
<path d="M424.762 245.173H282.85C282.85 205.985 314.618 174.217 353.806 174.217C392.994 174.217 424.762 205.985 424.762 245.173Z" fill="#1E3A8A"/>
</svg>
